# xmcd
#
# Track frame offsets: 
#        150
#        16747
#        31657
#        48737
#        69035
#        85867
#        95357
#        113560
#        129787
#        149880
#        169930
#        187752
#
# Disc length: 2744 seconds
#
# Revision: 7
# Processed by: cddbd v1.5.2PL0 Copyright (c) Steve Scherf et al.
# Submitted via: ExactAudioCopy v0.99pb5
#
DISCID=8e0ab60c
DTITLE=Lucas, Robert - Built for Comfort
DYEAR=1992
DGENRE=Blues
TTITLE0=Built For Comfort
TTITLE1=Walking Blues
TTITLE2=Ringing That Lonesome Bell
TTITLE3=Just A Kid
TTITLE4=Blues man from L. A.
TTITLE5=Hawaiian Boogie
TTITLE6=My Home Is A Burning
TTITLE7=Change, Change
TTITLE8=Sleeping by myself
TTITLE9=I Miss You Baby
TTITLE10=Talk To Me
TTITLE11=Come On In My KKitchen
EXTD=Label: AudioQuest\nBestellnummer: AQ-CD 1011\n\n\n Für freedb ber
EXTD=eitgestelt von:\n    KELLER'S Musik-Katalog 2006 2006 YEAR: 1992
EXTT0=
EXTT1=
EXTT2=
EXTT3=
EXTT4=
EXTT5=
EXTT6=
EXTT7=
EXTT8=
EXTT9=
EXTT10=
EXTT11=
PLAYORDER=
